# AST/ASF file generated using VICON BodyLanguage
# -----------------------------------------------
:version 1.10
:name VICON
:units
  mass 1.0
  length 0.45
  angle deg
:documentation
   .ast/.asf automatically generated from VICON data using
   VICON BodyBuilder and BodyLanguage model FoxedUp or BRILLIANT.MOD
:root
   order TX TY TZ RX RY RZ
   axis XYZ
   position 0 0 0  
   orientation 0 0 0 
:bonedata
  begin
     id 1 
     name lhipjoint
     direction 0.714689 -0.624256 0.315473 
     length 2.45343 
     axis 0 0 0  XYZ
  end
  begin
     id 2 
     name lfemur
     direction 0.34202 -0.939693 0  
     length 6.59069  
     axis 0 0 20  XYZ
    dof rx ry rz
    limits (-160.0 20.0)
           (-70.0 70.0)
           (-60.0 70.0)
  end
  begin
     id 3 
     name ltibia
     direction 0.34202 -0.939693 0   
     length 6.73476   
     axis 0 0 20   XYZ
    dof rx
    limits (-10.0 170.0)
  end
  begin
     id 4 
     name lfoot
     direction 0.0718085 -0.197292 0.977711   
     length 1.52607   
     axis -90 7.62852e-016 20   XYZ
    dof rx rz
    limits (-45.0 90.0)
           (-70.0 20.0)
  end
  begin
     id 5 
     name ltoes
     direction 1.53553e-011 -4.22024e-011 1   
     length 0.777832   
     axis -90 7.62852e-016 20   XYZ
    dof rx
    limits (-90.0 20.0)
  end
  begin
     id 6 
     name rhipjoint
     direction -0.727419 -0.612432 0.309497   
     length 2.50079  
     axis 0 0 0  XYZ 
  end
  begin
     id 7 
     name rfemur
     direction -0.34202 -0.939693 0   
     length 6.51665   
     axis 0 0 -20   XYZ
    dof rx ry rz
    limits (-160.0 20.0)
           (-70.0 70.0)
           (-70.0 60.0)
  end
  begin
     id 8 
     name rtibia
     direction -0.34202 -0.939693 0   
     length 6.48919   
     axis 0 0 -20   XYZ
    dof rx
    limits (-10.0 170.0)
 end
 begin
     id 9 
     name rfoot
     direction -0.112205 -0.308282 0.944655   
     length 1.68717  
     axis -90 -7.62852e-016 -20   XYZ
    dof rx rz
    limits (-45.0 90.0)
           (-20.0 70.0)
  end
  begin
     id 10 
     name rtoes
     direction -1.53583e-011 -4.21993e-011 1   
     length 0.846859   
     axis -90 -7.62852e-016 -20   XYZ
    dof rx
    limits (-90.0 20.0)
  end
  begin
     id 11 
     name lowerback
     direction -0.00119603 0.996364 -0.0851956   
     length 1.67242   
     axis 0 0 0   XYZ
    dof rx ry rz
    limits (-20.0 45.0)
           (-30.0 30.0)
           (-30.0 30.0)
  end
  begin
     id 12 
     name upperback
     direction -0.00531001 0.998318 0.0577248   
     length 1.64819   
     axis 0 0 0   XYZ
    dof rx ry rz
    limits (-20.0 45.0)
           (-30.0 30.0)
           (-30.0 30.0)
  end
  begin
     id 13 
     name thorax
     direction -0.00653676 0.995132 0.0983291   
     length 1.67429   
     axis 0 0 0   XYZ
    dof rx ry rz
    limits (-20.0 45.0)
           (-30.0 30.0)
           (-30.0 30.0)
  end
  begin
     id 14 
     name lowerneck
     direction 0.0141424 0.999886 0.00525412   
     length 1.59623   
     axis 0 0 0   XYZ
    dof rx ry rz
    limits (-20.0 45.0)
           (-30.0 30.0)
           (-30.0 30.0)
  end
  begin
     id 15 
     name upperneck
     direction -0.0640064 0.987178 -0.146232   
     length 1.59576   
     axis 0 0 0   XYZ
    dof rx ry rz
    limits (-20.0 45.0)
           (-30.0 30.0)
           (-30.0 30.0)
  end
  begin
     id 16
     name head
     direction -0.0222942 0.998496 -0.0500859  
     length 1.60959  
     axis 0 0 0   XYZ
    dof rx ry rz
    limits (-20.0 45.0)
           (-30.0 30.0)
           (-30.0 30.0)
  end
  begin
     id 17 
     name lclavicle
     direction 0.908549 0.392612 0.142806  
     length 2.80649  
     axis 0 0 0   XYZ
    dof ry rz
    limits (-20.0 10.0)
           (0.0 20.0)
  end
  begin
     id 18 
     name lhumerus
     direction 1 -4.48968e-011 1.08832e-028   
     length 4.2884   
     axis -180 -30 -90   XYZ
    dof rx ry rz
    limits (-60.0 90.0)
           (-90.0 90.0)
           (-90.0 90.0)
  end
  begin
     id 19
     name lradius
     direction 1 -4.48952e-011 -3.02642e-028   
     length 3.06552   
     axis -180 -30 -90   XYZ
    dof rx
    limits (-10.0 170.0)
  end
  begin
     id 20
     name lwrist
     direction 1 -4.49014e-011 1.58672e-027   
     length 1.53276   
     axis -1.65735e-015 90 90   XYZ
    dof ry
    limits (-180.0 0.0)
 end
  begin
     id 21 
     name lhand
     direction 1 -4.48928e-011 3.17344e-027   
     length 0.753045   
     axis -2.02492e-015 90 90   XYZ
    dof rx rz
    limits (-90.0 90.0)
           (-45.0 45.0)
  end
  begin
     id 22 
     name lfingers
     direction 1 -4.48958e-011 6.34687e-027   
     length 0.607124   
     axis -4.04985e-015 90 90   XYZ
    dof rx
    limits (0.0 90.0)
  end
  begin
     id 23
     name lthumb
     direction 0.707107 -6.34905e-011 0.707107   
     length 0.871712   
     axis -90 45 2.85299e-015   XYZ
    dof rx rz
    limits (-45.0 45.0)
           (-45.0 45.0)
  end
  begin
     id 24 
     name rclavicle
     direction -0.885098 0.45949 0.0739604   
     length 2.9478  
     axis 0 0 0   XYZ 
    dof ry rz
    limits (-10.0 20.0)
           (-20.0 0.0)
  end
  begin
     id 25 
     name rhumerus
     direction -1 -4.4898e-011 -2.61739e-027  
     length 4.52172   
     axis -180 30 90   XYZ
    dof rx ry rz
    limits (-90.0 60.0)
           (-90.0 90.0)
           (-90.0 90.0)
  end
  begin
     id 26 
     name rradius
     direction -1 -4.48945e-011 9.02552e-028   
     length 2.8914   
     axis -180 30 90   XYZ
    dof rx
    limits (-10.0 170.0)
  end
  begin
     id 27 
     name rwrist
     direction -1 -4.49018e-011 1.58672e-027   
     length 1.4457   
     axis -1.65735e-015 -90 -90   XYZ
    dof ry
    limits (-180.0 0.0)
  end
  begin
     id 28
     name rhand
     direction -1 -4.48825e-011 3.17344e-027   
     length 0.680541   
     axis -2.02492e-015 -90 -90   XYZ
    dof rx rz
    limits (-90.0 90.0)
           (-45.0 45.0)
  end
  begin
     id 29
     name rfingers
     direction -1 -4.49067e-011 6.34687e-027   
     length 0.54867   
     axis -4.04985e-015 -90 -90   XYZ
    dof rx
    limits (0.0 90.0)
  end
  begin
     id 30
     name rthumb
     direction -0.707107 -6.34833e-011 0.707107   
     length 0.787783   
     axis -90 -45 -2.85299e-015   XYZ
    dof rx rz
    limits (-45.0 45.0)
           (-45.0 45.0)
  end
:hierarchy
  begin
    root lhipjoint rhipjoint lowerback
    lhipjoint lfemur
    lfemur ltibia
    ltibia lfoot
    lfoot ltoes
    rhipjoint rfemur
    rfemur rtibia
    rtibia rfoot
    rfoot rtoes
    lowerback upperback
    upperback thorax
    thorax lowerneck lclavicle rclavicle
    lowerneck upperneck
    upperneck head
    lclavicle lhumerus
    lhumerus lradius
    lradius lwrist
    lwrist lhand lthumb
    lhand lfingers
    rclavicle rhumerus
    rhumerus rradius
    rradius rwrist
    rwrist rhand rthumb
    rhand rfingers
  end

#!OML:ASF E:\emotionWalksFemale\Project 1\Capture day 1\Session 1\Female1.ASF
:FULLY-SPECIFIED
:DEGREES
58
root 8.82351 15.1851 42.0005 178.07 0.936383 180.094
lowerback 8.37318 1.3889 0.497781
upperback -3.73699 1.98941 0.310544
thorax -8.65693 0.967172 -0.266196
lowerneck -8.41108 -3.14202 -8.5168
upperneck 27.2648 -6.38091 4.60928
head 10.4991 -4.11963 2.21264
rclavicle -1.09953e-014 4.77083e-015
rhumerus -39.354 4.42602 -85.6269
rradius 34.1692
rwrist 13.0229
rhand -4.1166 -56.5129
rfingers 7.12502
rthumb 21.642 -85.3234
lclavicle -1.09953e-014 4.77083e-015
lhumerus -46.1085 -3.19757 89.1039
lradius 39.8348
lwrist -9.11795
lhand -4.56504 -29.4108
lfingers 7.12502
lthumb 21.2113 -0.551326
rfemur -3.90837 18.8428 26.1244
rtibia 26.8041
rfoot -30.5257 -31.1214
rtoes 3.59991
lfemur -7.36316 -19.3469 -25.6385
ltibia 30.1016
lfoot -30.194 18.862
ltoes -29.0217
59
root 8.81364 15.18 41.9849 177.955 0.688066 180.006
lowerback 8.37772 1.29217 0.402146
upperback -3.59556 1.84253 0.327
thorax -8.5105 0.900185 -0.169689
lowerneck -8.23103 -3.44638 -8.69021
upperneck 26.8079 -6.71669 4.5933
head 10.3295 -4.2667 2.20292
rclavicle 3.71479e-015 -8.44835e-015
rhumerus -39.1483 4.3877 -85.1266
rradius 34.2649
rwrist 12.1872
rhand -4.12644 -57.7675
rfingers 7.12502
rthumb 21.6325 -86.579
lclavicle 3.71479e-015 -8.44835e-015
lhumerus -46.0279 -2.78987 88.807
lradius 39.8912
lwrist -9.12756
lhand -4.4015 -29.7535
lfingers 7.12502
lthumb 21.3684 -0.911702
rfemur -3.7623 18.9604 26.1159
rtibia 27.0422
rfoot -30.7556 -31.2601
rtoes 4.39629
lfemur -7.05395 -19.5955 -25.8627
ltibia 29.9291
lfoot -30.3224 18.7863
ltoes -28.2803
60
root 8.80346 15.1826 41.9733 178.292 1.00048 179.683
lowerback 8.11899 1.40202 -0.00182166
upperback -3.67002 1.94165 0.275163
thorax -8.45138 0.971414 -0.00760152
lowerneck -7.82363 -3.68735 -8.9314
upperneck 26.2273 -7.03418 4.8225
head 10.0818 -4.39233 2.30067
rclavicle 2.49723e-015 1.49089e-015
rhumerus -39.0571 4.20505 -84.5228
rradius 34.4714
rwrist 12.8326
rhand -3.21166 -59.2692
rfingers 7.12502
rthumb 22.5108 -87.977
lclavicle 2.49723e-015 1.49089e-015
lhumerus -46.1766 -2.57805 88.6162
lradius 39.992
lwrist -9.51197
lhand -5.0969 -29.8849
lfingers 7.12502
lthumb 20.7003 -0.968913
rfemur -4.27479 18.9811 25.5424
rtibia 27.2369
rfoot -30.4978 -30.9249
rtoes 4.52238
lfemur -7.26015 -19.6017 -26.1901
ltibia 29.7795
lfoot -30.3984 19.0362
ltoes -28.617
61
root 8.7938 15.1849 41.9641 178.698 1.24188 179.381
lowerback 7.95374 1.49062 -0.442091
upperback -3.83707 2.01585 0.240647
thorax -8.55046 1.03455 0.192824
lowerneck -7.41029 -3.89665 -9.3045
upperneck 25.7298 -7.35594 5.23573
head 9.87927 -4.52286 2.48416
rclavicle -1.44119e-015 -1.88845e-015
rhumerus -39.097 4.15949 -83.9375
rradius 34.5339
rwrist 13.4506
rhand -2.64381 -58.7501
rfingers 7.12502
rthumb 23.0558 -87.3909
lclavicle -1.44119e-015 -1.88845e-015
lhumerus -46.7561 -2.94522 88.7968
lradius 40.521
lwrist -9.60178
lhand -6.85125 -29.8761
lfingers 7.12502
lthumb 19.0139 -0.78544
rfemur -4.75517 18.974 24.9837
rtibia 27.2211
rfoot -30.3506 -30.8055
rtoes 4.29965
lfemur -7.6611 -19.4627 -26.428
ltibia 29.7977
lfoot -30.4973 19.0595
ltoes -28.9741
62
root 8.78154 15.1843 41.9552 178.75 1.58631 179.86
lowerback 8.21331 1.5967 0.0211907
upperback -3.87631 2.22379 0.370029
thorax -8.73446 1.11308 0.0291686
lowerneck -7.2706 -4.18806 -9.50504
upperneck 25.429 -7.76067 5.44078
head 9.79667 -4.69466 2.54718
rclavicle 8.03835e-015 6.95746e-016
rhumerus -39.147 4.4921 -83.7038
rradius 34.2617
rwrist 11.8029
rhand -5.15974 -56.5722
rfingers 7.12502
rthumb 20.6399 -85.4948
lclavicle 8.03835e-015 6.95746e-016
lhumerus -47.0618 -3.42052 88.9244
lradius 40.9207
lwrist -9.21083
lhand -7.81407 -30.1451
lfingers 7.12502
lthumb 18.0877 -0.966152
rfemur -4.81125 19.0014 25.4341
rtibia 27.2027
rfoot -30.3038 -30.5641
rtoes 4.01914
lfemur -7.65727 -19.21 -25.9429
ltibia 29.8067
lfoot -30.6139 19.1001
ltoes -28.3115
63
root 8.77378 15.181 41.9377 178.569 1.46367 180.454
lowerback 8.53777 1.53879 0.687258
upperback -3.79418 2.23086 0.459131
thorax -8.81348 1.07854 -0.259442
lowerneck -7.22563 -4.50362 -9.81373
upperneck 25.1228 -8.21186 5.83873
head 9.74944 -4.87366 2.68771
rclavicle -1.8897e-014 -7.65321e-015
rhumerus -39.1117 4.37673 -83.3927
rradius 34.2163
rwrist 11.5181
rhand -5.58918 -56.7991
rfingers 7.12502
rthumb 20.2272 -85.7659
lclavicle -1.8897e-014 -7.65321e-015
lhumerus -46.1106 -2.82817 88.2687
lradius 39.6327
lwrist -9.24567
lhand -6.72596 -30.7547
lfingers 7.12502
lthumb 19.1344 -1.67595
rfemur -4.44851 19.2131 26.2409
rtibia 27.2001
rfoot -29.4593 -31.0081
rtoes 2.13072
lfemur -7.3777 -19.1105 -25.3765
ltibia 29.7934
lfoot -30.6244 18.9403
ltoes -27.5771
64
root 8.75902 15.1838 41.9246 178.765 1.51607 180.219
lowerback 8.47808 1.53718 0.609935
upperback -3.82648 2.20818 0.325586
thorax -8.81101 1.06764 -0.352637
lowerneck -7.06098 -4.76927 -10.4812
upperneck 24.8123 -8.63222 6.51222
head 9.7077 -5.0535 2.99033
rclavicle 1.29583e-014 5.66536e-015
rhumerus -39.0875 4.16394 -82.9605
rradius 34.3327
rwrist 12.3161
rhand -2.98853 -58.2997
rfingers 7.12502
rthumb 22.725 -86.9814
lclavicle 1.29583e-014 5.66536e-015
lhumerus -46.8811 -3.21026 88.2565
lradius 40.739
lwrist -9.31848
lhand -7.39629 -30.0039
lfingers 7.12502
lthumb 18.4897 -0.862604
rfemur -4.63609 19.1934 25.8309
rtibia 27.1572
rfoot -25.7818 -31.5367
rtoes -4.61401
lfemur -7.56123 -19.2602 -25.6545
ltibia 29.794
lfoot -30.724 19.0354
ltoes -27.2803
65
root 8.74816 15.1859 41.9108 178.989 1.71357 179.861
lowerback 8.28999 1.55837 0.24013
upperback -3.84398 2.18658 0.258933
thorax -8.73106 1.07745 -0.206926
lowerneck -6.3843 -4.93127 -11.174
upperneck 24.0924 -8.91044 7.18838
head 9.4163 -5.17485 3.33091
rclavicle 3.44022e-014 8.64713e-015
rhumerus -38.9936 4.11238 -82.4224
rradius 34.589
rwrist 13.7392
rhand 4.0511 -60.865
rfingers 7.12502
rthumb 29.4645 -88.5479
lclavicle 3.44022e-014 8.64713e-015
lhumerus -46.1912 -2.66557 87.8497
lradius 39.5991
lwrist -9.6336
lhand -7.18811 -30.4171
lfingers 7.12502
lthumb 18.6899 -1.29493
rfemur -4.89226 19.1942 25.2898
rtibia 27.1925
rfoot -25.4926 -31.4044
rtoes -5.10949
lfemur -7.75151 -19.2685 -26.0363
ltibia 29.7323
lfoot -30.7806 19.1563
ltoes -28.2674
66
root 8.73483 15.1841 41.8917 179.015 1.39984 179.93
lowerback 8.26211 1.40774 0.412123
upperback -3.76995 1.99923 0.234739
thorax -8.62767 0.975219 -0.29735
lowerneck -6.52746 -5.16276 -10.9534
upperneck 23.8802 -9.16064 7.04071
head 9.37876 -5.26207 3.20966
rclavicle -1.19147e-014 -1.09332e-015
rhumerus -38.8351 4.24021 -82.1814
rradius 34.1744
rwrist 12.7548
rhand -3.37089 -57.3846
rfingers 7.12502
rthumb 22.358 -86.1109
lclavicle -1.19147e-014 -1.09332e-015
lhumerus -46.0958 -2.52335 87.498
lradius 39.4895
lwrist -9.67655
lhand -6.47566 -30.6758
lfingers 7.12502
lthumb 19.375 -1.62103
rfemur -4.84663 19.2402 25.3931
rtibia 27.3614
rfoot -25.978 -31.6471
rtoes -4.01545
lfemur -7.70247 -19.1926 -25.9766
ltibia 29.598
lfoot -30.5744 18.9491
ltoes -29.5678
